<svg id="svg" version="1.1" xmlns="http://www.w3.org/2000/svg" xmlns:xlink="http://www.w3.org/1999/xlink" width="400" height="400" viewBox="0, 0, 400,400"><g id="svgg"><path id="path0" d="M187.800 87.839 C 183.266 88.298,172.808 90.479,170.486 91.451 C 169.764 91.753,168.861 92.000,168.481 92.000 C 168.100 92.000,167.116 92.360,166.296 92.800 C 165.475 93.240,164.611 93.600,164.377 93.600 C 163.938 93.600,160.781 94.986,157.600 96.574 C 154.902 97.921,155.011 98.080,166.597 109.612 C 177.627 120.591,178.098 120.948,179.800 119.607 C 180.020 119.434,180.830 119.166,181.600 119.013 C 182.370 118.859,184.530 118.363,186.400 117.911 C 190.870 116.830,205.911 116.691,209.800 117.695 C 211.120 118.035,212.971 118.440,213.913 118.594 C 216.883 119.080,226.976 122.833,228.636 124.068 C 228.876 124.246,230.098 124.939,231.352 125.608 C 235.504 127.824,240.748 131.997,245.430 136.810 C 247.663 139.106,249.195 140.970,252.200 145.050 C 253.355 146.619,255.369 150.172,256.931 153.400 C 259.117 157.916,259.599 159.077,259.613 159.860 C 259.620 160.267,259.890 160.949,260.213 161.376 C 260.536 161.804,260.800 162.455,260.800 162.824 C 260.800 163.194,261.161 164.625,261.601 166.005 C 262.661 169.321,263.125 177.080,262.326 178.126 C 261.814 178.797,251.564 172.661,248.369 169.771 C 247.823 169.278,246.000 168.945,246.000 169.339 C 246.000 169.518,247.018 171.370,248.232 173.400 C 248.758 174.280,249.552 175.720,249.997 176.600 C 250.442 177.480,251.270 179.010,251.838 180.000 C 252.726 181.550,254.026 183.942,257.707 190.800 C 258.121 191.570,258.999 193.190,259.660 194.400 C 260.321 195.610,261.396 197.590,262.049 198.800 C 262.702 200.010,263.954 202.260,264.831 203.800 C 265.709 205.340,266.788 207.320,267.231 208.200 C 269.655 213.024,269.700 213.024,273.068 208.199 C 276.211 203.696,277.954 201.256,280.209 198.200 C 281.183 196.880,282.980 194.360,284.202 192.600 C 285.424 190.840,287.036 188.590,287.785 187.600 C 288.534 186.610,289.159 185.584,289.173 185.320 C 289.188 185.056,289.431 184.696,289.714 184.520 C 289.997 184.344,290.877 183.209,291.670 181.999 C 292.463 180.788,293.574 179.335,294.138 178.771 C 296.818 176.091,296.057 174.657,292.636 175.940 C 289.345 177.176,287.898 177.648,286.200 178.041 C 285.320 178.245,283.950 178.695,283.157 179.041 C 282.363 179.387,281.283 179.610,280.757 179.535 L 279.800 179.400 279.941 174.600 C 280.216 165.233,278.648 155.072,275.372 145.000 C 274.427 142.093,273.121 139.059,270.752 134.266 C 268.791 130.299,268.326 129.468,267.732 128.875 C 267.439 128.582,267.200 128.185,267.200 127.991 C 267.200 127.798,266.615 126.803,265.900 125.779 C 265.185 124.756,264.420 123.622,264.200 123.261 C 261.723 119.190,255.271 112.422,247.400 105.638 C 244.625 103.247,235.871 97.859,231.800 96.038 C 230.700 95.545,229.519 94.995,229.175 94.815 C 227.796 94.091,222.304 92.000,221.783 92.000 C 221.477 92.000,220.636 91.751,219.914 91.446 C 218.613 90.898,213.802 89.734,208.000 88.564 C 205.086 87.977,191.320 87.483,187.800 87.839 M126.711 130.298 C 126.332 130.384,125.156 131.747,124.098 133.327 C 121.385 137.381,120.411 138.739,118.700 140.856 C 117.875 141.876,117.200 142.812,117.200 142.935 C 117.200 143.189,115.801 145.214,112.597 149.600 C 111.391 151.250,109.729 153.590,108.904 154.800 C 108.078 156.010,106.592 158.093,105.601 159.429 C 104.611 160.765,103.260 162.622,102.600 163.555 C 101.940 164.489,101.175 165.498,100.900 165.798 C 99.672 167.137,101.580 167.075,106.200 165.627 C 107.740 165.144,109.912 164.514,111.027 164.228 C 112.142 163.941,113.435 163.502,113.901 163.253 C 114.367 163.004,115.185 162.800,115.719 162.800 L 116.691 162.800 116.915 171.900 C 117.178 182.629,117.775 186.126,121.231 197.200 C 121.981 199.602,122.347 200.510,124.135 204.400 C 124.489 205.170,124.963 206.250,125.188 206.800 C 125.414 207.350,125.770 208.070,125.981 208.400 C 126.192 208.730,127.218 210.530,128.263 212.400 C 133.508 221.793,143.813 233.273,151.600 238.400 C 152.101 238.730,152.985 239.387,153.565 239.859 C 154.144 240.331,155.380 241.115,156.311 241.600 C 157.242 242.086,158.102 242.642,158.222 242.836 C 158.522 243.320,167.606 247.691,170.800 248.887 C 175.618 250.692,176.188 250.870,180.800 252.003 C 199.376 256.570,220.132 254.845,235.400 247.467 C 236.060 247.148,237.545 246.464,238.700 245.946 C 241.975 244.478,242.026 244.557,230.189 232.768 C 219.437 222.059,218.675 221.466,217.035 222.540 C 216.530 222.871,215.416 223.260,214.558 223.404 C 213.701 223.548,212.190 223.915,211.200 224.220 C 207.196 225.450,189.527 225.543,185.400 224.356 C 184.520 224.103,182.810 223.665,181.600 223.383 C 179.160 222.814,176.065 221.807,174.140 220.957 C 173.446 220.651,172.726 220.399,172.540 220.398 C 172.180 220.395,171.760 220.185,167.524 217.888 C 163.459 215.684,163.084 215.462,161.957 214.600 C 161.382 214.160,160.499 213.530,159.994 213.200 C 156.206 210.722,147.066 201.560,145.578 198.748 C 145.302 198.227,144.507 197.080,143.812 196.200 C 143.117 195.320,141.969 193.430,141.260 192.000 C 140.552 190.570,139.810 189.130,139.611 188.800 C 138.415 186.815,136.964 182.800,134.952 175.904 C 133.989 172.602,133.970 164.266,134.927 164.076 C 135.588 163.944,143.858 169.146,147.708 172.116 C 149.949 173.846,151.169 172.616,149.411 170.400 C 148.845 169.686,147.524 167.364,145.202 163.000 C 144.266 161.240,143.321 159.576,143.103 159.303 C 142.886 159.030,142.097 157.590,141.350 156.103 C 139.924 153.265,139.487 152.489,138.316 150.716 C 137.922 150.120,137.597 149.400,137.592 149.116 C 137.588 148.832,137.016 147.700,136.322 146.600 C 135.627 145.500,134.217 142.980,133.189 141.000 C 130.524 135.867,129.256 133.550,128.833 133.040 C 128.630 132.795,128.340 132.100,128.188 131.494 C 127.873 130.239,127.675 130.078,126.711 130.298 " stroke="none" fill="#f8fafb" fill-rule="evenodd"></path><path id="path1" d="M114.200 68.596 C 117.896 69.002,118.248 69.095,116.400 69.179 C 114.688 69.257,114.422 69.347,115.200 69.584 C 116.102 69.859,116.043 69.908,114.600 70.077 C 113.263 70.235,113.394 70.278,115.400 70.339 C 117.390 70.400,120.194 71.173,118.500 71.194 C 118.184 71.198,118.000 71.790,118.000 72.800 L 118.000 74.400 119.600 74.400 L 121.200 74.400 121.200 76.000 C 121.200 77.333,121.333 77.600,122.000 77.600 C 122.533 77.600,122.800 77.867,122.800 78.400 C 122.800 78.933,123.067 79.200,123.600 79.200 C 124.248 79.200,124.400 79.467,124.400 80.600 C 124.400 81.539,124.586 82.000,124.965 82.000 C 125.312 82.000,125.634 82.616,125.800 83.600 C 125.966 84.584,126.288 85.200,126.635 85.200 C 126.946 85.200,127.200 85.560,127.200 86.000 C 127.200 86.587,127.467 86.800,128.200 86.800 C 128.933 86.800,129.200 87.013,129.200 87.600 C 129.200 88.044,129.467 88.400,129.800 88.400 C 130.133 88.400,130.400 88.756,130.400 89.200 C 130.400 89.733,130.667 90.000,131.200 90.000 C 131.848 90.000,132.000 90.267,132.000 91.400 C 132.000 92.533,132.152 92.800,132.800 92.800 C 133.387 92.800,133.600 93.067,133.600 93.800 C 133.600 94.533,133.813 94.800,134.400 94.800 C 134.844 94.800,135.200 95.067,135.200 95.400 C 135.200 95.733,135.556 96.000,136.000 96.000 C 136.667 96.000,136.800 96.267,136.800 97.600 C 136.800 98.933,136.933 99.200,137.600 99.200 C 138.133 99.200,138.400 99.467,138.400 100.000 C 138.400 100.533,138.667 100.800,139.200 100.800 C 139.867 100.800,140.000 101.067,140.000 102.400 C 140.000 103.733,140.133 104.000,140.800 104.000 C 141.333 104.000,141.600 104.267,141.600 104.800 C 141.600 105.244,141.867 105.600,142.200 105.600 C 142.533 105.600,142.800 105.956,142.800 106.400 C 142.800 106.933,143.067 107.200,143.600 107.200 C 144.267 107.200,144.400 107.467,144.400 108.800 C 144.400 110.133,144.533 110.400,145.200 110.400 C 145.848 110.400,146.000 110.667,146.000 111.800 C 146.000 112.933,146.152 113.200,146.800 113.200 C 147.333 113.200,147.600 113.467,147.600 114.000 C 147.600 114.533,147.867 114.800,148.400 114.800 C 149.067 114.800,149.200 115.067,149.200 116.400 L 149.200 118.000 150.800 118.000 L 152.400 118.000 152.400 119.600 C 152.400 120.933,152.533 121.200,153.200 121.200 C 153.733 121.200,154.000 121.467,154.000 122.000 C 154.000 122.533,154.267 122.800,154.800 122.800 C 155.448 122.800,155.600 123.067,155.600 124.200 C 155.600 125.333,155.752 125.600,156.400 125.600 C 157.065 125.600,157.200 125.867,157.200 127.182 C 157.200 128.671,157.282 128.779,158.590 129.024 C 159.779 129.248,160.017 129.482,160.234 130.643 C 160.417 131.617,160.702 132.000,161.245 132.000 C 161.733 132.000,162.000 132.282,162.000 132.800 C 162.000 133.244,162.267 133.600,162.600 133.600 C 162.933 133.600,163.200 133.956,163.200 134.400 C 163.200 134.933,163.467 135.200,164.000 135.200 C 164.667 135.200,164.800 135.467,164.800 136.800 C 164.800 138.133,164.933 138.400,165.600 138.400 C 166.267 138.400,166.400 138.667,166.400 140.000 L 166.400 141.600 168.000 141.600 C 169.562 141.600,169.600 141.633,169.600 143.000 C 169.600 144.133,169.752 144.400,170.400 144.400 C 170.933 144.400,171.200 144.667,171.200 145.200 C 171.200 145.733,171.467 146.000,172.000 146.000 C 172.667 146.000,172.800 146.267,172.800 147.600 C 172.800 148.933,172.933 149.200,173.600 149.200 C 174.133 149.200,174.400 149.467,174.400 150.000 C 174.400 150.533,174.667 150.800,175.200 150.800 C 175.733 150.800,176.000 151.067,176.000 151.600 C 176.000 152.040,176.254 152.400,176.565 152.400 C 176.912 152.400,177.234 153.016,177.400 154.000 C 177.553 154.908,177.895 155.600,178.191 155.600 C 178.477 155.600,178.828 156.223,178.971 156.985 C 179.194 158.175,179.425 158.406,180.615 158.629 C 181.913 158.873,182.000 158.987,182.000 160.445 C 182.000 161.733,182.137 162.000,182.800 162.000 C 183.448 162.000,183.600 162.267,183.600 163.400 C 183.600 164.533,183.752 164.800,184.400 164.800 C 184.933 164.800,185.200 165.067,185.200 165.600 C 185.200 166.133,185.467 166.400,186.000 166.400 C 186.533 166.400,186.800 166.667,186.800 167.200 C 186.800 167.733,187.067 168.000,187.600 168.000 C 188.267 168.000,188.400 168.267,188.400 169.600 C 188.400 170.933,188.533 171.200,189.200 171.200 C 189.867 171.200,190.000 171.467,190.000 172.800 C 190.000 174.352,190.041 174.400,191.355 174.400 C 192.588 174.400,192.735 174.527,192.974 175.800 C 193.131 176.638,193.470 177.200,193.818 177.200 C 194.172 177.200,194.400 177.592,194.400 178.200 C 194.400 178.933,194.613 179.200,195.200 179.200 C 195.644 179.200,196.000 179.467,196.000 179.800 C 196.000 180.133,196.356 180.400,196.800 180.400 C 197.467 180.400,197.600 180.667,197.600 182.000 C 197.600 183.333,197.733 183.600,198.400 183.600 C 198.933 183.600,199.200 183.867,199.200 184.400 C 199.200 184.933,199.467 185.200,200.000 185.200 C 200.667 185.200,200.800 185.467,200.800 186.800 C 200.800 188.133,200.933 188.400,201.600 188.400 C 202.133 188.400,202.400 188.667,202.400 189.200 C 202.400 189.733,202.667 190.000,203.200 190.000 C 203.733 190.000,204.000 190.267,204.000 190.800 C 204.000 191.333,204.267 191.600,204.800 191.600 C 205.503 191.600,205.600 191.867,205.600 193.800 C 205.600 195.672,205.710 196.000,206.338 196.000 C 207.306 196.000,208.400 197.237,208.400 198.331 C 208.400 199.078,208.625 199.200,210.000 199.200 L 211.600 199.200 211.600 200.800 C 211.600 202.133,211.733 202.400,212.400 202.400 C 212.933 202.400,213.200 202.667,213.200 203.200 C 213.200 203.733,213.467 204.000,214.000 204.000 C 214.667 204.000,214.800 204.267,214.800 205.600 C 214.800 206.933,214.933 207.200,215.600 207.200 C 216.248 207.200,216.400 207.467,216.400 208.600 C 216.400 209.733,216.552 210.000,217.200 210.000 C 217.787 210.000,218.000 210.267,218.000 211.000 C 218.000 211.733,218.213 212.000,218.800 212.000 C 219.244 212.000,219.600 212.267,219.600 212.600 C 219.600 212.933,219.956 213.200,220.400 213.200 C 220.933 213.200,221.200 213.467,221.200 214.000 C 221.200 214.533,221.467 214.800,222.000 214.800 C 222.667 214.800,222.800 215.067,222.800 216.400 C 222.800 217.733,222.933 218.000,223.600 218.000 C 224.133 218.000,224.400 218.267,224.400 218.800 C 224.400 219.240,224.654 219.600,224.965 219.600 C 225.312 219.600,225.634 220.216,225.800 221.200 C 225.966 222.184,226.288 222.800,226.635 222.800 C 226.946 222.800,227.200 223.160,227.200 223.600 C 227.200 224.116,227.467 224.400,227.950 224.400 C 228.707 224.400,229.200 225.752,229.200 227.832 C 229.200 228.580,229.476 228.815,230.600 229.026 C 231.402 229.177,232.000 229.526,232.000 229.845 C 232.000 230.150,232.360 230.400,232.800 230.400 C 233.467 230.400,233.600 230.667,233.600 232.000 C 233.600 233.333,233.733 233.600,234.400 233.600 C 234.933 233.600,235.200 233.867,235.200 234.400 C 235.200 234.933,235.467 235.200,236.000 235.200 C 236.533 235.200,236.800 235.467,236.800 236.000 C 236.800 236.543,237.067 236.800,237.629 236.800 C 238.243 236.800,238.438 237.033,238.384 237.700 C 238.244 239.430,238.406 239.908,239.200 240.116 C 239.640 240.231,240.000 240.601,240.000 240.937 C 240.000 241.335,240.454 241.593,241.300 241.675 C 242.487 241.789,242.611 241.931,242.724 243.300 C 242.818 244.439,243.024 244.800,243.577 244.800 C 244.375 244.800,244.786 245.847,244.795 247.900 C 244.798 248.786,244.991 249.200,245.400 249.200 C 245.733 249.200,246.000 249.556,246.000 250.000 C 246.000 250.533,246.267 250.800,246.800 250.800 C 247.333 250.800,247.600 251.067,247.600 251.600 C 247.600 252.133,247.867 252.400,248.400 252.400 C 249.067 252.400,249.200 252.667,249.200 254.000 C 249.200 255.333,249.333 255.600,250.000 255.600 C 250.533 255.600,250.800 255.867,250.800 256.400 C 250.800 256.933,251.067 257.200,251.600 257.200 C 252.248 257.200,252.400 257.467,252.400 258.600 C 252.400 259.733,252.552 260.000,253.200 260.000 C 253.733 260.000,254.000 260.267,254.000 260.800 C 254.000 261.333,254.267 261.600,254.800 261.600 C 255.333 261.600,255.600 261.867,255.600 262.400 C 255.600 262.933,255.867 263.200,256.400 263.200 C 256.933 263.200,257.200 263.467,257.200 264.000 C 257.200 264.440,257.454 264.800,257.765 264.800 C 258.112 264.800,258.434 265.416,258.600 266.400 C 258.805 267.615,259.055 268.000,259.635 268.000 C 260.261 268.000,260.400 268.291,260.400 269.600 C 260.400 271.072,260.487 271.200,261.480 271.200 C 262.989 271.200,262.154 271.901,260.400 272.107 C 259.556 272.207,260.025 272.297,261.580 272.336 C 264.999 272.421,264.283 273.062,260.400 273.393 C 258.750 273.534,243.900 273.777,227.400 273.934 C 202.445 274.171,209.992 274.235,272.281 274.310 C 346.836 274.400,349.714 274.356,348.964 273.142 C 348.848 272.954,349.573 272.778,350.576 272.750 C 351.579 272.723,352.580 272.655,352.800 272.600 C 353.020 272.545,353.380 272.478,353.600 272.450 C 353.820 272.423,354.000 272.141,354.000 271.824 C 354.000 271.447,354.519 271.205,355.500 271.124 C 356.511 271.040,357.000 270.805,357.000 270.400 C 357.000 269.995,357.489 269.760,358.500 269.676 C 359.675 269.579,360.000 269.384,360.000 268.776 C 360.000 268.267,360.275 268.000,360.800 268.000 C 361.333 268.000,361.600 267.733,361.600 267.200 C 361.600 266.627,361.883 266.386,362.600 266.350 C 364.452 266.257,364.600 266.202,364.600 265.600 C 364.600 265.270,365.005 264.942,365.500 264.872 C 366.078 264.790,366.400 264.468,366.400 263.972 C 366.400 263.467,366.676 263.200,367.200 263.200 C 367.733 263.200,368.000 262.933,368.000 262.400 C 368.000 261.867,368.267 261.600,368.800 261.600 C 369.317 261.600,369.600 261.333,369.600 260.847 C 369.600 260.430,369.957 260.000,370.400 259.884 C 370.983 259.732,371.200 259.338,371.200 258.437 C 371.200 257.593,371.394 257.200,371.813 257.200 C 372.149 257.200,372.541 256.899,372.682 256.531 C 372.823 256.162,373.268 255.532,373.669 255.131 C 374.071 254.729,374.400 253.969,374.400 253.443 C 374.400 252.916,374.670 252.382,375.000 252.255 C 375.377 252.111,375.600 251.499,375.600 250.613 C 375.600 249.467,375.751 249.200,376.400 249.200 C 377.111 249.200,377.200 248.933,377.200 246.800 C 377.200 244.667,377.289 244.400,378.000 244.400 C 378.733 244.400,378.800 244.133,378.800 241.227 C 378.800 238.405,378.889 238.026,379.600 237.800 C 380.864 237.399,380.864 104.447,379.600 104.116 C 378.888 103.930,378.800 103.570,378.800 100.850 C 378.800 98.226,378.687 97.722,378.000 97.293 C 377.396 96.916,377.200 96.360,377.200 95.024 C 377.200 93.605,377.041 93.204,376.400 93.000 C 375.805 92.811,375.600 92.395,375.600 91.373 C 375.600 90.419,375.417 90.000,375.000 90.000 C 374.632 90.000,374.400 89.626,374.400 89.033 C 374.400 87.652,374.002 86.800,373.357 86.800 C 373.051 86.800,372.800 86.440,372.800 86.000 C 372.800 85.467,372.533 85.200,372.000 85.200 C 371.348 85.200,371.200 84.933,371.200 83.763 C 371.200 82.662,371.013 82.276,370.400 82.116 C 369.960 82.001,369.600 81.641,369.600 81.316 C 369.600 80.991,369.240 80.631,368.800 80.516 C 368.360 80.401,368.000 80.070,368.000 79.780 C 368.000 79.491,367.659 79.146,367.243 79.014 C 366.827 78.882,366.389 78.401,366.270 77.947 C 366.143 77.459,365.867 77.235,365.600 77.400 C 365.332 77.566,365.056 77.337,364.926 76.840 C 364.806 76.378,364.368 75.978,363.953 75.950 C 363.539 75.922,363.020 75.855,362.800 75.800 C 362.580 75.745,362.220 75.677,362.000 75.650 C 361.780 75.623,361.600 75.330,361.600 75.000 C 361.600 74.667,361.244 74.400,360.800 74.400 C 360.267 74.400,360.000 74.133,360.000 73.600 C 360.000 72.958,359.733 72.800,358.647 72.800 C 357.630 72.800,357.241 72.601,357.084 72.000 C 356.924 71.387,356.538 71.200,355.437 71.200 C 354.267 71.200,354.000 71.052,354.000 70.400 C 354.000 69.689,353.733 69.600,351.600 69.600 C 349.467 69.600,349.200 69.511,349.200 68.800 C 349.200 68.002,348.952 68.000,229.500 68.056 C 133.541 68.101,110.673 68.208,114.200 68.596 M208.400 88.416 C 214.907 89.682,223.573 92.111,224.989 93.067 C 225.423 93.360,226.019 93.600,226.314 93.600 C 227.196 93.600,231.855 95.805,236.200 98.279 C 237.080 98.780,238.250 99.415,238.800 99.690 C 239.350 99.966,240.520 100.694,241.400 101.310 C 242.280 101.925,243.630 102.847,244.400 103.358 C 252.159 108.506,262.109 119.197,267.400 128.071 C 270.238 132.831,273.600 139.460,273.600 140.297 C 273.600 140.481,273.960 141.337,274.400 142.200 C 274.840 143.063,275.200 144.145,275.200 144.605 C 275.200 145.064,275.378 145.618,275.595 145.835 C 277.272 147.512,279.632 161.373,279.948 171.400 L 280.200 179.400 281.600 179.263 C 282.370 179.187,283.180 178.981,283.400 178.805 C 283.771 178.508,285.562 177.967,290.600 176.629 C 291.700 176.337,293.084 175.872,293.674 175.596 C 296.074 174.476,296.483 176.234,294.387 178.657 C 293.789 179.349,292.639 180.879,291.831 182.057 C 291.024 183.236,289.753 185.010,289.008 186.000 C 288.263 186.990,287.641 188.016,287.627 188.280 C 287.612 188.544,287.372 188.904,287.093 189.080 C 286.814 189.256,285.691 190.750,284.596 192.400 C 283.502 194.050,282.410 195.580,282.171 195.800 C 281.931 196.020,281.085 197.190,280.290 198.400 C 279.495 199.610,278.126 201.590,277.248 202.800 C 276.370 204.010,274.797 206.260,273.751 207.800 C 270.390 212.747,269.314 213.454,268.423 211.300 C 268.173 210.695,267.533 209.480,267.001 208.600 C 266.468 207.720,265.774 206.437,265.457 205.749 C 265.141 205.061,264.697 204.384,264.472 204.244 C 264.246 204.105,263.943 203.453,263.799 202.795 C 263.655 202.138,263.398 201.600,263.229 201.600 C 263.060 201.600,262.625 200.925,262.263 200.100 C 261.901 199.275,261.163 197.880,260.623 197.000 C 260.083 196.120,259.452 194.950,259.221 194.400 C 258.990 193.850,258.623 193.130,258.406 192.800 C 258.189 192.470,257.743 191.660,257.414 191.000 C 257.085 190.340,256.632 189.485,256.408 189.100 C 256.184 188.715,255.816 188.085,255.592 187.700 C 255.368 187.315,254.905 186.460,254.564 185.800 C 254.224 185.140,253.512 183.880,252.982 183.000 C 252.452 182.120,251.835 180.950,251.610 180.400 C 251.385 179.850,251.023 179.130,250.806 178.800 C 250.589 178.470,250.138 177.660,249.803 177.000 C 249.468 176.340,248.764 175.080,248.238 174.200 C 244.709 168.294,245.127 166.839,249.400 170.157 C 250.280 170.841,251.297 171.580,251.659 171.800 C 252.022 172.020,253.156 172.785,254.179 173.500 C 255.203 174.215,256.140 174.800,256.262 174.800 C 256.385 174.800,257.050 175.253,257.742 175.806 C 258.434 176.359,259.191 176.965,259.425 177.152 C 260.377 177.913,261.640 178.423,262.008 178.195 C 262.621 177.816,262.472 170.440,261.803 167.987 C 261.475 166.784,261.007 164.931,260.763 163.869 C 260.520 162.807,260.069 161.457,259.763 160.869 C 259.456 160.281,259.204 159.500,259.202 159.132 C 259.201 158.765,258.937 157.955,258.615 157.332 C 258.294 156.710,257.401 154.850,256.631 153.200 C 252.113 143.519,244.179 134.373,235.000 128.267 C 233.460 127.242,232.020 126.260,231.800 126.084 C 231.093 125.518,223.873 122.132,221.600 121.300 C 217.119 119.661,216.538 119.490,213.600 118.947 C 211.950 118.642,209.970 118.184,209.200 117.928 C 207.075 117.222,190.571 117.417,188.328 118.174 C 187.377 118.494,185.520 118.931,184.200 119.145 C 182.880 119.358,181.260 119.817,180.600 120.164 C 177.846 121.613,177.286 121.312,170.987 115.007 C 167.804 111.822,165.200 109.032,165.200 108.807 C 165.200 108.583,165.011 108.400,164.780 108.400 C 164.549 108.400,163.284 107.320,161.968 106.000 C 160.652 104.680,159.401 103.600,159.188 103.600 C 158.974 103.600,158.800 103.422,158.800 103.203 C 158.800 102.648,156.462 100.474,155.554 100.186 C 153.867 99.650,154.109 96.980,155.883 96.558 C 156.497 96.412,157.270 96.061,157.600 95.777 C 157.930 95.494,158.738 95.128,159.396 94.964 C 160.054 94.799,160.815 94.442,161.088 94.169 C 161.361 93.896,162.297 93.553,163.169 93.405 C 164.041 93.258,164.955 92.896,165.200 92.600 C 165.445 92.304,166.370 91.940,167.256 91.791 C 168.141 91.641,169.346 91.268,169.933 90.962 C 170.520 90.656,171.513 90.404,172.140 90.402 C 172.766 90.401,173.846 90.139,174.540 89.820 C 175.233 89.501,177.162 89.057,178.827 88.834 C 180.491 88.611,182.291 88.253,182.827 88.040 C 184.833 87.238,203.777 87.517,208.400 88.416 " stroke="none" fill="#058ce2" fill-rule="evenodd"></path><path id="path2" d="M49.651 68.867 C 49.399 69.270,49.347 69.600,49.535 69.600 C 49.722 69.600,50.175 69.270,50.540 68.867 C 51.050 68.303,51.077 68.133,50.656 68.133 C 50.355 68.133,49.903 68.463,49.651 68.867 M45.683 70.300 C 45.401 70.685,45.295 70.747,45.447 70.438 C 45.629 70.069,45.563 69.976,45.255 70.166 C 44.998 70.325,44.891 70.623,45.017 70.828 C 45.420 71.479,46.299 71.229,46.516 70.400 C 46.774 69.413,46.368 69.365,45.683 70.300 M21.360 96.880 C 21.384 97.629,21.642 98.199,22.000 98.297 C 22.499 98.433,22.506 98.395,22.043 98.071 C 21.720 97.846,21.578 97.328,21.705 96.841 C 21.826 96.379,21.789 95.917,21.622 95.814 C 21.456 95.711,21.338 96.191,21.360 96.880 M21.450 101.200 C 21.583 101.750,21.693 102.290,21.693 102.400 C 21.700 103.364,21.517 103.654,21.020 103.463 C 20.606 103.304,20.513 103.435,20.695 103.920 C 20.904 104.478,20.844 104.514,20.360 104.122 C 19.871 103.725,19.757 103.826,19.689 104.722 C 19.627 105.551,19.698 105.661,19.998 105.200 C 20.331 104.687,20.389 104.701,20.394 105.300 C 20.397 105.685,20.175 106.003,19.900 106.006 C 19.564 106.010,19.541 106.109,19.829 106.306 C 20.636 106.858,20.820 108.017,20.143 108.277 C 19.471 108.535,19.671 227.972,20.373 245.600 L 20.652 252.600 20.739 242.000 C 20.816 232.582,20.891 231.487,21.413 232.176 C 21.841 232.743,22.008 232.797,22.028 232.376 C 22.045 232.023,22.189 232.109,22.400 232.600 C 22.694 233.284,22.748 233.299,22.772 232.700 C 22.838 231.059,24.400 231.923,24.400 233.600 C 24.400 235.311,23.069 236.005,22.676 234.500 C 22.575 234.115,22.493 234.790,22.493 236.000 C 22.493 237.210,22.575 237.885,22.676 237.500 C 22.936 236.503,24.400 236.588,24.400 237.600 C 24.400 238.044,24.667 238.400,25.000 238.400 C 25.333 238.400,25.600 238.756,25.600 239.200 C 25.600 239.733,25.867 240.000,26.400 240.000 C 27.067 240.000,27.200 240.267,27.200 241.600 C 27.200 242.933,27.333 243.200,28.000 243.200 C 28.533 243.200,28.800 243.467,28.800 244.000 C 28.800 244.667,29.067 244.800,30.400 244.800 C 31.962 244.800,32.000 244.833,32.000 246.200 C 32.000 247.333,32.152 247.600,32.800 247.600 C 33.467 247.600,33.600 247.867,33.600 249.200 C 33.600 250.533,33.733 250.800,34.400 250.800 C 35.067 250.800,35.200 251.067,35.200 252.400 L 35.200 254.000 36.800 254.000 L 38.400 254.000 38.400 255.600 C 38.400 256.933,38.533 257.200,39.200 257.200 C 39.867 257.200,40.000 257.467,40.000 258.800 C 40.000 260.362,40.033 260.400,41.400 260.400 L 42.800 260.400 42.800 262.600 C 42.800 264.507,42.903 264.800,43.572 264.800 C 44.055 264.800,44.409 265.137,44.518 265.700 L 44.691 266.600 44.746 265.700 C 44.791 264.948,45.031 264.800,46.200 264.800 L 47.600 264.800 47.600 267.200 C 47.600 269.333,47.689 269.600,48.400 269.600 C 49.067 269.600,49.200 269.867,49.200 271.200 L 49.200 272.800 50.800 272.800 L 52.400 272.800 52.400 275.200 L 52.400 277.600 54.000 277.600 L 55.600 277.600 55.600 279.800 C 55.600 281.733,55.697 282.000,56.400 282.000 C 56.933 282.000,57.200 282.267,57.200 282.800 C 57.200 283.244,57.467 283.600,57.800 283.600 C 58.267 283.600,58.400 284.133,58.400 286.000 C 58.400 288.293,58.444 288.400,59.400 288.400 C 60.133 288.400,60.400 288.187,60.400 287.600 C 60.400 286.952,60.667 286.800,61.800 286.800 L 63.200 286.800 63.200 290.000 C 63.200 292.933,63.267 293.200,64.000 293.200 C 64.533 293.200,64.800 293.467,64.800 294.000 C 64.800 294.533,65.067 294.800,65.600 294.800 C 66.044 294.800,66.400 295.067,66.400 295.400 C 66.400 295.733,66.756 296.000,67.200 296.000 C 67.733 296.000,68.000 296.267,68.000 296.800 C 68.000 297.333,68.267 297.600,68.800 297.600 C 69.240 297.600,69.600 297.791,69.600 298.024 C 69.600 298.257,69.780 298.336,70.000 298.200 C 70.441 297.927,70.465 297.995,70.625 299.972 C 70.697 300.858,70.615 301.148,70.394 300.791 C 70.207 300.487,70.159 300.067,70.288 299.857 C 70.418 299.648,70.316 299.605,70.062 299.762 C 69.423 300.157,69.484 300.627,70.278 301.420 C 70.914 302.057,70.973 302.053,71.249 301.349 C 71.411 300.937,71.556 300.825,71.572 301.100 C 71.587 301.375,71.780 301.600,72.000 301.600 C 72.220 301.600,72.355 301.375,72.300 301.100 C 72.245 300.825,72.504 300.623,72.876 300.652 C 73.248 300.680,73.636 300.483,73.739 300.214 C 73.868 299.879,73.604 299.787,72.904 299.920 C 72.202 300.055,71.970 299.972,72.164 299.658 C 72.320 299.406,72.707 299.200,73.024 299.200 C 73.341 299.200,73.600 299.030,73.600 298.823 C 73.600 298.616,73.977 298.518,74.437 298.607 C 75.001 298.716,75.208 298.599,75.074 298.248 C 74.964 297.962,75.035 297.474,75.231 297.164 C 75.458 296.804,75.590 296.772,75.594 297.075 C 75.597 297.336,75.940 297.525,76.356 297.493 C 76.772 297.462,77.033 297.230,76.936 296.977 C 76.839 296.725,77.233 296.208,77.811 295.829 C 78.454 295.408,78.775 294.911,78.636 294.549 C 78.511 294.224,78.574 294.060,78.776 294.185 C 78.978 294.310,79.831 293.780,80.671 293.008 C 81.512 292.236,81.945 291.603,81.633 291.602 C 80.848 291.599,81.439 291.078,82.300 291.015 C 82.685 290.986,83.000 290.791,83.000 290.582 C 83.000 290.372,82.777 290.225,82.504 290.255 C 82.232 290.285,82.114 290.139,82.243 289.931 C 82.371 289.723,82.864 289.583,83.338 289.621 C 84.823 289.738,85.256 289.615,84.974 289.157 C 84.783 288.849,84.596 288.879,84.356 289.257 C 84.167 289.556,84.012 289.620,84.012 289.400 C 84.012 288.826,84.646 287.907,84.932 288.066 C 85.065 288.140,85.521 287.903,85.944 287.541 C 86.368 287.178,87.094 286.761,87.557 286.614 C 88.021 286.466,88.400 286.088,88.400 285.773 C 88.400 285.458,88.651 285.200,88.957 285.200 C 89.264 285.200,89.633 284.890,89.779 284.511 C 90.005 283.921,90.096 283.907,90.415 284.411 C 90.728 284.905,90.789 284.887,90.794 284.300 C 90.799 283.662,91.192 283.440,91.854 283.700 C 91.994 283.755,92.258 283.395,92.441 282.900 C 92.657 282.316,93.129 281.982,93.787 281.950 C 95.556 281.863,95.802 281.775,95.696 281.271 C 95.580 280.716,96.057 280.491,97.800 280.279 C 98.500 280.194,99.000 279.897,99.000 279.566 C 99.000 279.191,99.608 278.932,100.800 278.800 C 101.790 278.690,102.555 278.465,102.500 278.300 C 102.193 277.380,102.630 277.200,105.173 277.200 C 107.595 277.200,107.978 277.099,108.200 276.400 C 108.433 275.665,108.805 275.600,112.798 275.600 C 116.127 275.600,117.283 275.460,117.743 275.000 C 118.264 274.479,122.312 274.391,148.671 274.328 C 177.372 274.259,178.029 274.242,160.919 274.013 C 150.974 273.880,142.709 273.642,142.552 273.485 C 142.395 273.328,143.782 273.174,145.633 273.143 C 148.242 273.099,148.640 273.026,147.400 272.817 L 145.800 272.547 147.200 272.337 L 148.600 272.128 147.300 272.064 C 146.136 272.007,146.000 271.874,146.000 270.800 C 146.000 269.867,145.822 269.600,145.200 269.600 C 144.667 269.600,144.400 269.333,144.400 268.800 C 144.400 268.267,144.133 268.000,143.600 268.000 C 142.933 268.000,142.800 267.733,142.800 266.400 C 142.800 265.244,142.633 264.800,142.200 264.800 C 141.781 264.800,141.600 264.378,141.600 263.400 C 141.600 262.267,141.448 262.000,140.800 262.000 C 140.267 262.000,140.000 261.733,140.000 261.200 C 140.000 260.667,139.733 260.400,139.200 260.400 C 138.613 260.400,138.400 260.133,138.400 259.400 C 138.400 258.667,138.187 258.400,137.600 258.400 C 137.156 258.400,136.800 258.133,136.800 257.800 C 136.800 257.467,136.444 257.200,136.000 257.200 C 135.333 257.200,135.200 256.933,135.200 255.600 C 135.200 254.267,135.067 254.000,134.400 254.000 C 133.867 254.000,133.600 253.733,133.600 253.200 C 133.600 252.533,133.333 252.400,132.000 252.400 L 130.400 252.400 130.400 250.000 C 130.400 248.133,130.267 247.600,129.800 247.600 C 129.467 247.600,129.200 247.244,129.200 246.800 C 129.200 246.213,128.933 246.000,128.200 246.000 C 127.324 246.000,127.200 245.827,127.200 244.600 C 127.200 243.467,127.048 243.200,126.400 243.200 C 125.867 243.200,125.600 242.933,125.600 242.400 C 125.600 241.956,125.333 241.600,125.000 241.600 C 124.567 241.600,124.400 241.156,124.400 240.000 C 124.400 238.667,124.267 238.400,123.600 238.400 C 123.067 238.400,122.800 238.133,122.800 237.600 C 122.800 237.067,122.533 236.800,122.000 236.800 C 121.467 236.800,121.200 236.533,121.200 236.000 C 121.200 235.467,120.933 235.200,120.400 235.200 C 119.867 235.200,119.600 234.933,119.600 234.400 C 119.600 233.867,119.333 233.600,118.800 233.600 C 118.133 233.600,118.000 233.333,118.000 232.000 L 118.000 230.400 116.400 230.400 L 114.800 230.400 114.800 228.000 C 114.800 225.867,114.711 225.600,114.000 225.600 C 113.556 225.600,113.200 225.333,113.200 225.000 C 113.200 224.670,112.930 224.400,112.600 224.400 C 112.267 224.400,112.000 224.044,112.000 223.600 C 112.000 223.013,111.733 222.800,111.000 222.800 C 110.100 222.800,110.000 222.640,110.000 221.200 C 110.000 220.044,109.833 219.600,109.400 219.600 C 109.067 219.600,108.800 219.244,108.800 218.800 C 108.800 218.267,108.533 218.000,108.000 218.000 C 107.333 218.000,107.200 217.733,107.200 216.400 C 107.200 215.067,107.067 214.800,106.400 214.800 C 105.867 214.800,105.600 214.533,105.600 214.000 C 105.600 213.467,105.333 213.200,104.800 213.200 C 104.267 213.200,104.000 212.933,104.000 212.400 C 104.000 211.867,103.733 211.600,103.200 211.600 C 102.667 211.600,102.400 211.333,102.400 210.800 C 102.400 210.267,102.133 210.000,101.600 210.000 C 100.897 210.000,100.800 209.733,100.800 207.800 C 100.800 205.867,100.703 205.600,100.000 205.600 C 99.467 205.600,99.200 205.333,99.200 204.800 C 99.200 204.133,98.933 204.000,97.600 204.000 L 96.000 204.000 96.000 201.600 C 96.000 199.467,95.911 199.200,95.200 199.200 C 94.667 199.200,94.400 198.933,94.400 198.400 C 94.400 197.956,94.133 197.600,93.800 197.600 C 93.467 197.600,93.200 197.244,93.200 196.800 C 93.200 196.267,92.933 196.000,92.400 196.000 C 91.756 196.000,91.600 195.733,91.600 194.635 C 91.600 193.355,91.501 193.254,90.000 193.000 C 88.499 192.746,88.400 192.645,88.400 191.365 C 88.400 190.039,88.354 190.000,86.800 190.000 L 85.200 190.000 85.200 187.600 C 85.200 185.467,85.111 185.200,84.400 185.200 C 83.867 185.200,83.600 184.933,83.600 184.400 C 83.600 183.867,83.333 183.600,82.800 183.600 C 82.267 183.600,82.000 183.333,82.000 182.800 C 82.000 182.267,81.733 182.000,81.200 182.000 C 80.533 182.000,80.400 181.733,80.400 180.400 C 80.400 179.267,80.230 178.800,79.818 178.800 C 79.470 178.800,79.131 178.238,78.974 177.400 C 78.784 176.387,78.502 176.000,77.955 176.000 C 77.341 176.000,77.200 175.702,77.200 174.400 C 77.200 173.067,77.067 172.800,76.400 172.800 C 75.867 172.800,75.600 172.533,75.600 172.000 C 75.600 171.556,75.333 171.200,75.000 171.200 C 74.667 171.200,74.400 170.844,74.400 170.400 C 74.400 169.867,74.133 169.600,73.600 169.600 C 72.933 169.600,72.800 169.333,72.800 168.000 C 72.800 166.667,72.667 166.400,72.000 166.400 C 71.467 166.400,71.200 166.133,71.200 165.600 C 71.200 165.067,70.933 164.800,70.400 164.800 C 69.867 164.800,69.600 164.533,69.600 164.000 C 69.600 163.467,69.333 163.200,68.800 163.200 C 68.267 163.200,68.000 162.933,68.000 162.400 C 68.000 161.867,67.733 161.600,67.200 161.600 C 66.533 161.600,66.400 161.333,66.400 160.000 C 66.400 158.667,66.267 158.400,65.600 158.400 C 65.156 158.400,64.800 158.133,64.800 157.800 C 64.800 157.467,64.444 157.200,64.000 157.200 C 63.467 157.200,63.200 156.933,63.200 156.400 C 63.200 155.956,62.933 155.600,62.600 155.600 C 62.167 155.600,62.000 155.156,62.000 154.000 C 62.000 152.560,61.900 152.400,61.000 152.400 C 60.267 152.400,60.000 152.187,60.000 151.600 C 60.000 150.952,59.733 150.800,58.600 150.800 L 57.200 150.800 57.200 148.400 C 57.200 146.267,57.111 146.000,56.400 146.000 C 55.752 146.000,55.600 145.733,55.600 144.600 C 55.600 143.467,55.448 143.200,54.800 143.200 C 54.267 143.200,54.000 142.933,54.000 142.400 C 54.000 141.867,53.733 141.600,53.200 141.600 C 52.667 141.600,52.400 141.333,52.400 140.800 C 52.400 140.267,52.133 140.000,51.600 140.000 C 51.067 140.000,50.800 139.733,50.800 139.200 C 50.800 138.533,50.533 138.400,49.200 138.400 L 47.600 138.400 47.600 136.000 C 47.600 133.867,47.511 133.600,46.800 133.600 C 46.267 133.600,46.000 133.333,46.000 132.800 C 46.000 132.267,45.733 132.000,45.200 132.000 C 44.533 132.000,44.400 131.733,44.400 130.400 C 44.400 129.304,44.226 128.800,43.847 128.800 C 43.542 128.800,43.199 128.440,43.084 128.000 C 42.969 127.560,42.588 127.200,42.237 127.200 C 41.776 127.200,41.600 126.814,41.600 125.800 C 41.600 124.667,41.448 124.400,40.800 124.400 C 40.267 124.400,40.000 124.133,40.000 123.600 C 40.000 123.067,39.733 122.800,39.200 122.800 C 38.533 122.800,38.400 122.533,38.400 121.200 C 38.400 119.867,38.267 119.600,37.600 119.600 C 37.067 119.600,36.800 119.333,36.800 118.800 C 36.800 118.267,36.533 118.000,36.000 118.000 C 35.467 118.000,35.200 117.733,35.200 117.200 C 35.200 116.667,34.933 116.400,34.400 116.400 C 33.733 116.400,33.600 116.133,33.600 114.800 C 33.600 113.467,33.467 113.200,32.800 113.200 C 32.267 113.200,32.000 112.933,32.000 112.400 C 32.000 111.867,31.733 111.600,31.200 111.600 C 30.552 111.600,30.400 111.333,30.400 110.200 C 30.400 109.067,30.248 108.800,29.600 108.800 C 29.067 108.800,28.800 108.533,28.800 108.000 C 28.800 107.560,28.546 107.200,28.235 107.200 C 27.888 107.200,27.566 106.584,27.400 105.600 C 27.195 104.385,26.945 104.000,26.365 104.000 C 25.867 104.000,25.600 103.721,25.600 103.200 C 25.600 102.756,25.333 102.400,25.000 102.400 C 24.667 102.400,24.400 102.756,24.400 103.200 C 24.400 103.640,24.199 104.000,23.953 104.000 C 23.695 104.000,23.586 103.587,23.694 103.020 C 23.806 102.436,23.703 102.072,23.441 102.120 C 23.198 102.164,23.025 101.887,23.055 101.504 C 23.085 101.122,22.950 100.907,22.755 101.028 C 22.560 101.149,22.397 101.012,22.394 100.724 C 22.389 100.308,22.316 100.313,22.042 100.745 C 21.751 101.206,21.659 101.206,21.452 100.745 C 21.318 100.445,21.316 100.650,21.450 101.200 M19.600 101.800 C 19.600 102.810,20.145 103.137,20.600 102.400 C 20.736 102.180,20.662 102.000,20.436 102.000 C 20.210 102.000,20.129 101.730,20.255 101.400 C 20.382 101.070,20.286 100.800,20.043 100.800 C 19.799 100.800,19.600 101.250,19.600 101.800 M69.474 302.200 C 69.727 302.934,69.689 302.951,69.011 302.400 C 68.312 301.833,68.302 301.849,68.834 302.704 C 69.144 303.201,69.460 303.419,69.538 303.187 C 69.634 302.897,69.841 302.902,70.203 303.203 C 70.576 303.512,70.806 303.514,70.994 303.210 C 71.140 302.973,71.079 302.830,70.858 302.890 C 70.637 302.951,70.173 302.640,69.827 302.200 L 69.198 301.400 69.474 302.200 M66.400 303.994 C 66.400 304.279,66.715 304.757,67.100 305.057 C 67.658 305.492,67.671 305.557,67.163 305.382 C 66.705 305.224,66.415 305.532,66.130 306.481 C 65.912 307.207,65.510 307.751,65.237 307.690 C 64.964 307.630,64.855 307.765,64.994 307.990 C 65.133 308.216,65.517 308.400,65.847 308.400 C 66.177 308.400,66.350 308.243,66.231 308.050 C 65.991 307.661,67.269 306.184,68.801 305.080 L 69.800 304.360 68.815 304.565 C 68.219 304.689,67.547 304.514,67.115 304.123 C 66.596 303.654,66.400 303.618,66.400 303.994 M62.702 309.466 C 62.979 309.577,63.103 309.833,62.979 310.034 C 62.616 310.621,63.056 310.455,63.600 309.800 C 64.019 309.295,63.948 309.205,63.149 309.232 C 62.627 309.249,62.426 309.354,62.702 309.466 M57.697 314.999 C 57.860 315.179,57.817 315.538,57.603 315.797 C 57.334 316.121,57.397 316.267,57.806 316.267 C 58.528 316.267,58.593 315.358,57.900 314.959 C 57.625 314.801,57.533 314.819,57.697 314.999 M54.814 317.974 C 54.264 319.001,54.261 319.899,54.809 319.351 C 55.223 318.937,55.693 317.200,55.391 317.200 C 55.301 317.200,55.042 317.548,54.814 317.974 M45.056 327.878 C 44.605 328.328,44.781 328.800,45.400 328.800 C 45.730 328.800,46.000 328.631,46.000 328.424 C 46.000 327.919,45.375 327.558,45.056 327.878 " stroke="none" fill="#04c2b4" fill-rule="evenodd"></path><path id="path3" d="M50.600 68.800 C 50.109 69.342,49.368 69.600,48.301 69.600 C 47.062 69.600,46.680 69.771,46.516 70.400 C 46.401 70.840,46.036 71.200,45.704 71.200 C 45.191 71.200,45.182 71.097,45.644 70.500 C 46.158 69.836,46.144 69.835,45.376 70.487 C 44.930 70.865,44.014 71.217,43.340 71.268 C 42.519 71.331,42.130 71.565,42.158 71.981 C 42.185 72.373,41.796 72.646,41.100 72.727 C 40.323 72.816,40.000 73.080,40.000 73.627 C 40.000 74.244,39.717 74.400,38.600 74.400 C 37.316 74.400,36.985 74.707,37.163 75.730 C 37.194 75.911,37.039 75.948,36.818 75.811 C 36.597 75.675,35.593 76.386,34.587 77.392 C 33.515 78.464,32.560 79.107,32.279 78.946 C 32.016 78.795,31.929 78.814,32.086 78.988 C 32.590 79.546,31.643 80.791,30.924 80.516 C 30.432 80.327,30.325 80.426,30.507 80.901 C 30.784 81.623,29.847 82.600,29.238 82.224 C 29.011 82.083,28.908 82.323,28.998 82.788 C 29.108 83.362,28.894 83.661,28.260 83.821 C 27.722 83.956,27.342 84.380,27.303 84.886 C 27.269 85.349,27.006 85.876,26.720 86.058 C 26.434 86.239,26.380 86.396,26.600 86.406 C 26.820 86.416,26.692 86.604,26.317 86.823 C 25.941 87.042,25.722 87.453,25.831 87.736 C 25.939 88.019,25.662 88.582,25.214 88.987 C 24.766 89.392,24.400 90.146,24.400 90.662 C 24.400 91.229,24.163 91.600,23.800 91.600 C 23.470 91.600,23.179 91.825,23.154 92.100 C 23.128 92.375,23.066 92.780,23.015 93.000 C 22.964 93.220,22.894 94.019,22.861 94.776 C 22.805 96.034,22.753 96.089,22.261 95.416 C 21.888 94.905,21.635 94.820,21.437 95.139 C 21.281 95.393,21.347 95.600,21.584 95.600 C 21.849 95.600,21.914 96.002,21.753 96.643 C 21.582 97.327,21.682 97.822,22.046 98.081 C 22.479 98.389,22.448 98.427,21.906 98.253 C 21.210 98.029,21.197 98.131,21.561 101.000 C 21.589 101.220,21.787 101.130,22.000 100.800 C 22.282 100.364,22.389 100.343,22.394 100.724 C 22.397 101.012,22.560 101.149,22.755 101.028 C 22.950 100.907,23.085 101.122,23.055 101.504 C 23.025 101.887,23.198 102.164,23.441 102.120 C 23.703 102.072,23.806 102.436,23.694 103.020 C 23.586 103.587,23.695 104.000,23.953 104.000 C 24.199 104.000,24.400 103.640,24.400 103.200 C 24.400 102.756,24.667 102.400,25.000 102.400 C 25.333 102.400,25.600 102.756,25.600 103.200 C 25.600 103.721,25.867 104.000,26.365 104.000 C 26.945 104.000,27.195 104.385,27.400 105.600 C 27.566 106.584,27.888 107.200,28.235 107.200 C 28.546 107.200,28.800 107.560,28.800 108.000 C 28.800 108.533,29.067 108.800,29.600 108.800 C 30.248 108.800,30.400 109.067,30.400 110.200 C 30.400 111.333,30.552 111.600,31.200 111.600 C 31.733 111.600,32.000 111.867,32.000 112.400 C 32.000 112.933,32.267 113.200,32.800 113.200 C 33.467 113.200,33.600 113.467,33.600 114.800 C 33.600 116.133,33.733 116.400,34.400 116.400 C 34.933 116.400,35.200 116.667,35.200 117.200 C 35.200 117.733,35.467 118.000,36.000 118.000 C 36.533 118.000,36.800 118.267,36.800 118.800 C 36.800 119.333,37.067 119.600,37.600 119.600 C 38.267 119.600,38.400 119.867,38.400 121.200 C 38.400 122.533,38.533 122.800,39.200 122.800 C 39.733 122.800,40.000 123.067,40.000 123.600 C 40.000 124.133,40.267 124.400,40.800 124.400 C 41.448 124.400,41.600 124.667,41.600 125.800 C 41.600 126.814,41.776 127.200,42.237 127.200 C 42.588 127.200,42.969 127.560,43.084 128.000 C 43.199 128.440,43.542 128.800,43.847 128.800 C 44.226 128.800,44.400 129.304,44.400 130.400 C 44.400 131.733,44.533 132.000,45.200 132.000 C 45.733 132.000,46.000 132.267,46.000 132.800 C 46.000 133.333,46.267 133.600,46.800 133.600 C 47.511 133.600,47.600 133.867,47.600 136.000 L 47.600 138.400 49.200 138.400 C 50.533 138.400,50.800 138.533,50.800 139.200 C 50.800 139.733,51.067 140.000,51.600 140.000 C 52.133 140.000,52.400 140.267,52.400 140.800 C 52.400 141.333,52.667 141.600,53.200 141.600 C 53.733 141.600,54.000 141.867,54.000 142.400 C 54.000 142.933,54.267 143.200,54.800 143.200 C 55.448 143.200,55.600 143.467,55.600 144.600 C 55.600 145.733,55.752 146.000,56.400 146.000 C 57.111 146.000,57.200 146.267,57.200 148.400 L 57.200 150.800 58.600 150.800 C 59.733 150.800,60.000 150.952,60.000 151.600 C 60.000 152.187,60.267 152.400,61.000 152.400 C 61.900 152.400,62.000 152.560,62.000 154.000 C 62.000 155.156,62.167 155.600,62.600 155.600 C 62.933 155.600,63.200 155.956,63.200 156.400 C 63.200 156.933,63.467 157.200,64.000 157.200 C 64.444 157.200,64.800 157.467,64.800 157.800 C 64.800 158.133,65.156 158.400,65.600 158.400 C 66.267 158.400,66.400 158.667,66.400 160.000 C 66.400 161.333,66.533 161.600,67.200 161.600 C 67.733 161.600,68.000 161.867,68.000 162.400 C 68.000 162.933,68.267 163.200,68.800 163.200 C 69.333 163.200,69.600 163.467,69.600 164.000 C 69.600 164.533,69.867 164.800,70.400 164.800 C 70.933 164.800,71.200 165.067,71.200 165.600 C 71.200 166.133,71.467 166.400,72.000 166.400 C 72.667 166.400,72.800 166.667,72.800 168.000 C 72.800 169.333,72.933 169.600,73.600 169.600 C 74.133 169.600,74.400 169.867,74.400 170.400 C 74.400 170.844,74.667 171.200,75.000 171.200 C 75.333 171.200,75.600 171.556,75.600 172.000 C 75.600 172.533,75.867 172.800,76.400 172.800 C 77.067 172.800,77.200 173.067,77.200 174.400 C 77.200 175.702,77.341 176.000,77.955 176.000 C 78.502 176.000,78.784 176.387,78.974 177.400 C 79.131 178.238,79.470 178.800,79.818 178.800 C 80.230 178.800,80.400 179.267,80.400 180.400 C 80.400 181.733,80.533 182.000,81.200 182.000 C 81.733 182.000,82.000 182.267,82.000 182.800 C 82.000 183.333,82.267 183.600,82.800 183.600 C 83.333 183.600,83.600 183.867,83.600 184.400 C 83.600 184.933,83.867 185.200,84.400 185.200 C 85.111 185.200,85.200 185.467,85.200 187.600 L 85.200 190.000 86.800 190.000 C 88.354 190.000,88.400 190.039,88.400 191.365 C 88.400 192.645,88.499 192.746,90.000 193.000 C 91.501 193.254,91.600 193.355,91.600 194.635 C 91.600 195.733,91.756 196.000,92.400 196.000 C 92.933 196.000,93.200 196.267,93.200 196.800 C 93.200 197.244,93.467 197.600,93.800 197.600 C 94.133 197.600,94.400 197.956,94.400 198.400 C 94.400 198.933,94.667 199.200,95.200 199.200 C 95.911 199.200,96.000 199.467,96.000 201.600 L 96.000 204.000 97.600 204.000 C 98.933 204.000,99.200 204.133,99.200 204.800 C 99.200 205.333,99.467 205.600,100.000 205.600 C 100.703 205.600,100.800 205.867,100.800 207.800 C 100.800 209.733,100.897 210.000,101.600 210.000 C 102.133 210.000,102.400 210.267,102.400 210.800 C 102.400 211.333,102.667 211.600,103.200 211.600 C 103.733 211.600,104.000 211.867,104.000 212.400 C 104.000 212.933,104.267 213.200,104.800 213.200 C 105.333 213.200,105.600 213.467,105.600 214.000 C 105.600 214.533,105.867 214.800,106.400 214.800 C 107.067 214.800,107.200 215.067,107.200 216.400 C 107.200 217.733,107.333 218.000,108.000 218.000 C 108.533 218.000,108.800 218.267,108.800 218.800 C 108.800 219.244,109.067 219.600,109.400 219.600 C 109.833 219.600,110.000 220.044,110.000 221.200 C 110.000 222.640,110.100 222.800,111.000 222.800 C 111.733 222.800,112.000 223.013,112.000 223.600 C 112.000 224.044,112.267 224.400,112.600 224.400 C 112.930 224.400,113.200 224.670,113.200 225.000 C 113.200 225.333,113.556 225.600,114.000 225.600 C 114.711 225.600,114.800 225.867,114.800 228.000 L 114.800 230.400 116.400 230.400 L 118.000 230.400 118.000 232.000 C 118.000 233.333,118.133 233.600,118.800 233.600 C 119.333 233.600,119.600 233.867,119.600 234.400 C 119.600 234.933,119.867 235.200,120.400 235.200 C 120.933 235.200,121.200 235.467,121.200 236.000 C 121.200 236.533,121.467 236.800,122.000 236.800 C 122.533 236.800,122.800 237.067,122.800 237.600 C 122.800 238.133,123.067 238.400,123.600 238.400 C 124.267 238.400,124.400 238.667,124.400 240.000 C 124.400 241.156,124.567 241.600,125.000 241.600 C 125.333 241.600,125.600 241.956,125.600 242.400 C 125.600 242.933,125.867 243.200,126.400 243.200 C 127.048 243.200,127.200 243.467,127.200 244.600 C 127.200 245.827,127.324 246.000,128.200 246.000 C 128.933 246.000,129.200 246.213,129.200 246.800 C 129.200 247.244,129.467 247.600,129.800 247.600 C 130.267 247.600,130.400 248.133,130.400 250.000 L 130.400 252.400 132.000 252.400 C 133.333 252.400,133.600 252.533,133.600 253.200 C 133.600 253.733,133.867 254.000,134.400 254.000 C 135.067 254.000,135.200 254.267,135.200 255.600 C 135.200 256.933,135.333 257.200,136.000 257.200 C 136.444 257.200,136.800 257.467,136.800 257.800 C 136.800 258.133,137.156 258.400,137.600 258.400 C 138.187 258.400,138.400 258.667,138.400 259.400 C 138.400 260.133,138.613 260.400,139.200 260.400 C 139.733 260.400,140.000 260.667,140.000 261.200 C 140.000 261.733,140.267 262.000,140.800 262.000 C 141.448 262.000,141.600 262.267,141.600 263.400 C 141.600 264.378,141.781 264.800,142.200 264.800 C 142.633 264.800,142.800 265.244,142.800 266.400 C 142.800 267.733,142.933 268.000,143.600 268.000 C 144.133 268.000,144.400 268.267,144.400 268.800 C 144.400 269.333,144.667 269.600,145.200 269.600 C 145.818 269.600,146.000 269.867,146.000 270.775 C 146.000 271.800,146.165 271.970,147.300 272.111 L 148.600 272.272 147.200 272.393 L 145.800 272.514 147.400 272.800 C 148.724 273.037,148.413 273.107,145.600 273.204 L 142.200 273.321 146.000 273.662 C 151.564 274.163,254.099 274.112,256.760 273.608 C 257.942 273.383,259.954 273.200,261.231 273.200 C 264.467 273.200,264.732 272.417,261.524 272.336 C 259.961 272.296,259.533 272.209,260.400 272.107 C 262.154 271.901,262.989 271.200,261.480 271.200 C 260.487 271.200,260.400 271.072,260.400 269.600 C 260.400 268.291,260.261 268.000,259.635 268.000 C 259.055 268.000,258.805 267.615,258.600 266.400 C 258.434 265.416,258.112 264.800,257.765 264.800 C 257.454 264.800,257.200 264.440,257.200 264.000 C 257.200 263.467,256.933 263.200,256.400 263.200 C 255.867 263.200,255.600 262.933,255.600 262.400 C 255.600 261.867,255.333 261.600,254.800 261.600 C 254.267 261.600,254.000 261.333,254.000 260.800 C 254.000 260.267,253.733 260.000,253.200 260.000 C 252.552 260.000,252.400 259.733,252.400 258.600 C 252.400 257.467,252.248 257.200,251.600 257.200 C 251.067 257.200,250.800 256.933,250.800 256.400 C 250.800 255.867,250.533 255.600,250.000 255.600 C 249.333 255.600,249.200 255.333,249.200 254.000 C 249.200 252.667,249.067 252.400,248.400 252.400 C 247.867 252.400,247.600 252.133,247.600 251.600 C 247.600 251.067,247.333 250.800,246.800 250.800 C 246.267 250.800,246.000 250.533,246.000 250.000 C 246.000 249.556,245.733 249.200,245.400 249.200 C 244.991 249.200,244.798 248.786,244.795 247.900 C 244.786 245.847,244.375 244.800,243.577 244.800 C 243.024 244.800,242.818 244.439,242.724 243.300 C 242.612 241.942,242.481 241.788,241.341 241.678 C 240.493 241.595,240.015 241.301,239.878 240.778 C 239.766 240.350,239.388 240.000,239.037 240.000 C 238.405 240.000,238.244 239.433,238.384 237.700 C 238.438 237.033,238.243 236.800,237.629 236.800 C 237.067 236.800,236.800 236.543,236.800 236.000 C 236.800 235.467,236.533 235.200,236.000 235.200 C 235.467 235.200,235.200 234.933,235.200 234.400 C 235.200 233.867,234.933 233.600,234.400 233.600 C 233.733 233.600,233.600 233.333,233.600 232.000 C 233.600 230.667,233.467 230.400,232.800 230.400 C 232.360 230.400,232.000 230.150,232.000 229.845 C 232.000 229.526,231.402 229.177,230.600 229.026 C 229.476 228.815,229.200 228.580,229.200 227.832 C 229.200 225.752,228.707 224.400,227.950 224.400 C 227.467 224.400,227.200 224.116,227.200 223.600 C 227.200 223.160,226.946 222.800,226.635 222.800 C 226.288 222.800,225.966 222.184,225.800 221.200 C 225.634 220.216,225.312 219.600,224.965 219.600 C 224.654 219.600,224.400 219.240,224.400 218.800 C 224.400 218.267,224.133 218.000,223.600 218.000 C 222.933 218.000,222.800 217.733,222.800 216.400 C 222.800 215.067,222.667 214.800,222.000 214.800 C 221.467 214.800,221.200 214.533,221.200 214.000 C 221.200 213.467,220.933 213.200,220.400 213.200 C 219.956 213.200,219.600 212.933,219.600 212.600 C 219.600 212.267,219.244 212.000,218.800 212.000 C 218.213 212.000,218.000 211.733,218.000 211.000 C 218.000 210.267,217.787 210.000,217.200 210.000 C 216.552 210.000,216.400 209.733,216.400 208.600 C 216.400 207.467,216.248 207.200,215.600 207.200 C 214.933 207.200,214.800 206.933,214.800 205.600 C 214.800 204.267,214.667 204.000,214.000 204.000 C 213.467 204.000,213.200 203.733,213.200 203.200 C 213.200 202.667,212.933 202.400,212.400 202.400 C 211.733 202.400,211.600 202.133,211.600 200.800 L 211.600 199.200 210.000 199.200 C 208.588 199.200,208.400 199.090,208.400 198.262 C 208.400 197.200,207.270 196.000,206.269 196.000 C 205.725 196.000,205.600 195.589,205.600 193.800 C 205.600 191.867,205.503 191.600,204.800 191.600 C 204.267 191.600,204.000 191.333,204.000 190.800 C 204.000 190.267,203.733 190.000,203.200 190.000 C 202.667 190.000,202.400 189.733,202.400 189.200 C 202.400 188.667,202.133 188.400,201.600 188.400 C 200.933 188.400,200.800 188.133,200.800 186.800 C 200.800 185.467,200.667 185.200,200.000 185.200 C 199.467 185.200,199.200 184.933,199.200 184.400 C 199.200 183.867,198.933 183.600,198.400 183.600 C 197.733 183.600,197.600 183.333,197.600 182.000 C 197.600 180.667,197.467 180.400,196.800 180.400 C 196.356 180.400,196.000 180.133,196.000 179.800 C 196.000 179.467,195.644 179.200,195.200 179.200 C 194.613 179.200,194.400 178.933,194.400 178.200 C 194.400 177.592,194.172 177.200,193.818 177.200 C 193.470 177.200,193.131 176.638,192.974 175.800 C 192.735 174.527,192.588 174.400,191.355 174.400 C 190.041 174.400,190.000 174.352,190.000 172.800 C 190.000 171.467,189.867 171.200,189.200 171.200 C 188.533 171.200,188.400 170.933,188.400 169.600 C 188.400 168.267,188.267 168.000,187.600 168.000 C 187.067 168.000,186.800 167.733,186.800 167.200 C 186.800 166.667,186.533 166.400,186.000 166.400 C 185.467 166.400,185.200 166.133,185.200 165.600 C 185.200 165.067,184.933 164.800,184.400 164.800 C 183.752 164.800,183.600 164.533,183.600 163.400 C 183.600 162.267,183.448 162.000,182.800 162.000 C 182.137 162.000,182.000 161.733,182.000 160.445 C 182.000 158.987,181.913 158.873,180.615 158.629 C 179.425 158.406,179.194 158.175,178.971 156.985 C 178.828 156.223,178.477 155.600,178.191 155.600 C 177.895 155.600,177.553 154.908,177.400 154.000 C 177.234 153.016,176.912 152.400,176.565 152.400 C 176.254 152.400,176.000 152.040,176.000 151.600 C 176.000 151.067,175.733 150.800,175.200 150.800 C 174.667 150.800,174.400 150.533,174.400 150.000 C 174.400 149.467,174.133 149.200,173.600 149.200 C 172.933 149.200,172.800 148.933,172.800 147.600 C 172.800 146.267,172.667 146.000,172.000 146.000 C 171.467 146.000,171.200 145.733,171.200 145.200 C 171.200 144.667,170.933 144.400,170.400 144.400 C 169.752 144.400,169.600 144.133,169.600 143.000 C 169.600 141.633,169.562 141.600,168.000 141.600 L 166.400 141.600 166.400 140.000 C 166.400 138.667,166.267 138.400,165.600 138.400 C 164.933 138.400,164.800 138.133,164.800 136.800 C 164.800 135.467,164.667 135.200,164.000 135.200 C 163.467 135.200,163.200 134.933,163.200 134.400 C 163.200 133.956,162.933 133.600,162.600 133.600 C 162.267 133.600,162.000 133.244,162.000 132.800 C 162.000 132.282,161.733 132.000,161.245 132.000 C 160.702 132.000,160.417 131.617,160.234 130.643 C 160.017 129.482,159.779 129.248,158.590 129.024 C 157.282 128.779,157.200 128.671,157.200 127.182 C 157.200 125.867,157.065 125.600,156.400 125.600 C 155.752 125.600,155.600 125.333,155.600 124.200 C 155.600 123.067,155.448 122.800,154.800 122.800 C 154.267 122.800,154.000 122.533,154.000 122.000 C 154.000 121.467,153.733 121.200,153.200 121.200 C 152.533 121.200,152.400 120.933,152.400 119.600 L 152.400 118.000 150.800 118.000 L 149.200 118.000 149.200 116.400 C 149.200 115.067,149.067 114.800,148.400 114.800 C 147.867 114.800,147.600 114.533,147.600 114.000 C 147.600 113.467,147.333 113.200,146.800 113.200 C 146.152 113.200,146.000 112.933,146.000 111.800 C 146.000 110.667,145.848 110.400,145.200 110.400 C 144.533 110.400,144.400 110.133,144.400 108.800 C 144.400 107.467,144.267 107.200,143.600 107.200 C 143.067 107.200,142.800 106.933,142.800 106.400 C 142.800 105.956,142.533 105.600,142.200 105.600 C 141.867 105.600,141.600 105.244,141.600 104.800 C 141.600 104.267,141.333 104.000,140.800 104.000 C 140.133 104.000,140.000 103.733,140.000 102.400 C 140.000 101.067,139.867 100.800,139.200 100.800 C 138.667 100.800,138.400 100.533,138.400 100.000 C 138.400 99.467,138.133 99.200,137.600 99.200 C 136.933 99.200,136.800 98.933,136.800 97.600 C 136.800 96.267,136.667 96.000,136.000 96.000 C 135.556 96.000,135.200 95.733,135.200 95.400 C 135.200 95.067,134.844 94.800,134.400 94.800 C 133.813 94.800,133.600 94.533,133.600 93.800 C 133.600 93.067,133.387 92.800,132.800 92.800 C 132.152 92.800,132.000 92.533,132.000 91.400 C 132.000 90.267,131.848 90.000,131.200 90.000 C 130.667 90.000,130.400 89.733,130.400 89.200 C 130.400 88.756,130.133 88.400,129.800 88.400 C 129.467 88.400,129.200 88.044,129.200 87.600 C 129.200 87.013,128.933 86.800,128.200 86.800 C 127.467 86.800,127.200 86.587,127.200 86.000 C 127.200 85.560,126.946 85.200,126.635 85.200 C 126.288 85.200,125.966 84.584,125.800 83.600 C 125.634 82.616,125.312 82.000,124.965 82.000 C 124.586 82.000,124.400 81.539,124.400 80.600 C 124.400 79.467,124.248 79.200,123.600 79.200 C 123.067 79.200,122.800 78.933,122.800 78.400 C 122.800 77.867,122.533 77.600,122.000 77.600 C 121.333 77.600,121.200 77.333,121.200 76.000 L 121.200 74.400 119.600 74.400 L 118.000 74.400 118.000 72.800 C 118.000 71.790,118.184 71.198,118.500 71.194 C 120.194 71.173,117.390 70.400,115.400 70.339 C 113.394 70.278,113.263 70.235,114.600 70.077 C 116.043 69.908,116.102 69.859,115.200 69.584 C 114.423 69.348,114.691 69.258,116.400 69.183 C 118.199 69.103,117.762 68.994,114.000 68.583 C 105.217 67.624,51.498 67.808,50.600 68.800 M182.827 88.040 C 182.291 88.253,180.491 88.611,178.827 88.834 C 177.162 89.057,175.233 89.501,174.540 89.820 C 173.846 90.139,172.766 90.401,172.140 90.402 C 171.513 90.404,170.520 90.656,169.933 90.962 C 169.346 91.268,168.141 91.641,167.256 91.791 C 166.370 91.940,165.445 92.304,165.200 92.600 C 164.955 92.896,164.041 93.258,163.169 93.405 C 162.297 93.553,161.361 93.896,161.088 94.169 C 160.815 94.442,160.054 94.799,159.396 94.964 C 158.738 95.128,157.930 95.494,157.600 95.777 C 157.270 96.061,156.497 96.412,155.883 96.558 C 154.109 96.980,153.867 99.650,155.554 100.186 C 156.462 100.474,158.800 102.648,158.800 103.203 C 158.800 103.422,158.974 103.600,159.188 103.600 C 159.401 103.600,160.652 104.680,161.968 106.000 C 163.284 107.320,164.549 108.400,164.780 108.400 C 165.011 108.400,165.200 108.583,165.200 108.807 C 165.200 109.032,167.804 111.822,170.987 115.007 C 177.286 121.312,177.846 121.613,180.600 120.164 C 181.260 119.817,182.880 119.358,184.200 119.145 C 185.520 118.931,187.371 118.497,188.314 118.178 C 189.396 117.813,191.829 117.583,194.914 117.553 C 197.601 117.527,200.340 117.355,201.000 117.171 C 203.525 116.466,189.412 117.250,186.200 117.993 C 184.440 118.400,182.370 118.859,181.600 119.013 C 180.830 119.166,180.020 119.434,179.800 119.607 C 178.098 120.948,177.627 120.591,166.597 109.612 C 155.011 98.080,154.902 97.921,157.600 96.574 C 160.781 94.986,163.938 93.600,164.377 93.600 C 164.611 93.600,165.475 93.240,166.296 92.800 C 167.116 92.360,168.100 92.000,168.481 92.000 C 168.861 92.000,169.764 91.753,170.486 91.451 C 172.879 90.450,183.713 88.208,187.800 87.868 C 188.680 87.794,188.140 87.716,186.600 87.693 C 185.060 87.670,183.362 87.826,182.827 88.040 M202.100 87.887 C 202.705 87.978,203.695 87.978,204.300 87.887 C 204.905 87.795,204.410 87.720,203.200 87.720 C 201.990 87.720,201.495 87.795,202.100 87.887 M20.246 101.425 C 20.124 101.741,20.244 102.006,20.513 102.013 C 20.820 102.021,20.765 102.206,20.365 102.513 C 19.585 103.111,19.532 104.267,20.284 104.267 C 20.589 104.267,20.740 104.019,20.622 103.713 C 20.494 103.378,20.584 103.266,20.849 103.430 C 21.427 103.788,21.953 102.906,21.712 101.983 C 21.465 101.041,20.530 100.685,20.246 101.425 M19.700 107.417 C 19.700 107.976,19.871 108.376,20.080 108.307 C 20.289 108.237,20.447 108.049,20.430 107.890 C 20.413 107.731,20.400 107.330,20.400 107.000 C 20.400 106.670,20.243 106.400,20.050 106.400 C 19.858 106.400,19.700 106.858,19.700 107.417 M205.107 117.490 C 205.826 117.579,206.906 117.577,207.507 117.486 C 208.108 117.395,207.520 117.322,206.200 117.324 C 204.880 117.326,204.388 117.401,205.107 117.490 M210.200 118.176 C 211.080 118.486,212.340 118.732,213.000 118.723 C 214.324 118.706,213.326 118.417,210.000 117.852 C 208.615 117.617,208.617 117.620,210.200 118.176 M217.200 119.769 C 217.750 120.101,218.470 120.373,218.800 120.374 C 219.603 120.376,218.652 119.816,217.200 119.432 L 216.200 119.167 217.200 119.769 M222.000 121.400 C 222.550 121.714,223.180 121.972,223.400 121.972 C 223.620 121.972,223.350 121.714,222.800 121.400 C 222.250 121.086,221.620 120.828,221.400 120.828 C 221.180 120.828,221.450 121.086,222.000 121.400 M232.600 126.677 C 233.260 127.032,234.421 127.790,235.180 128.361 C 235.939 128.932,236.434 129.192,236.279 128.937 C 235.901 128.314,232.373 125.996,231.831 126.016 C 231.594 126.025,231.940 126.322,232.600 126.677 M128.188 131.494 C 128.340 132.100,128.630 132.795,128.833 133.040 C 129.256 133.550,130.524 135.867,133.189 141.000 C 134.217 142.980,135.627 145.500,136.322 146.600 C 137.016 147.700,137.588 148.832,137.592 149.116 C 137.597 149.400,137.922 150.120,138.316 150.716 C 139.487 152.489,139.924 153.265,141.350 156.103 C 142.097 157.590,142.886 159.030,143.103 159.303 C 143.321 159.576,144.266 161.240,145.202 163.000 C 147.524 167.364,148.845 169.686,149.411 170.400 C 151.169 172.616,149.949 173.846,147.708 172.116 C 143.858 169.146,135.588 163.944,134.927 164.076 C 133.970 164.266,133.989 172.602,134.952 175.904 C 136.964 182.800,138.415 186.815,139.611 188.800 C 139.810 189.130,140.552 190.570,141.260 192.000 C 141.969 193.430,143.117 195.320,143.812 196.200 C 144.507 197.080,145.302 198.227,145.578 198.748 C 147.066 201.560,156.206 210.722,159.994 213.200 C 160.499 213.530,161.382 214.160,161.957 214.600 C 163.084 215.462,163.459 215.684,167.524 217.888 C 171.760 220.185,172.180 220.395,172.540 220.398 C 172.726 220.399,173.446 220.651,174.140 220.957 C 176.065 221.807,179.160 222.814,181.600 223.383 C 182.810 223.665,184.520 224.103,185.400 224.356 C 189.527 225.543,207.196 225.450,211.200 224.220 C 212.190 223.915,213.701 223.548,214.558 223.404 C 215.416 223.260,216.530 222.871,217.035 222.540 C 218.675 221.466,219.437 222.059,230.189 232.768 C 242.026 244.557,241.975 244.478,238.700 245.946 C 237.545 246.464,236.060 247.148,235.400 247.467 C 220.132 254.845,199.376 256.570,180.800 252.003 C 176.188 250.870,175.618 250.692,170.800 248.887 C 167.606 247.691,158.522 243.320,158.222 242.836 C 158.102 242.642,157.242 242.086,156.311 241.600 C 155.380 241.115,154.144 240.331,153.565 239.859 C 152.985 239.387,152.101 238.730,151.600 238.400 C 143.813 233.273,133.508 221.793,128.263 212.400 C 127.218 210.530,126.192 208.730,125.981 208.400 C 125.770 208.070,125.414 207.350,125.188 206.800 C 124.963 206.250,124.489 205.170,124.135 204.400 C 122.347 200.510,121.981 199.602,121.231 197.200 C 117.775 186.126,117.178 182.629,116.915 171.900 L 116.691 162.800 115.719 162.800 C 115.185 162.800,114.367 163.004,113.901 163.253 C 113.435 163.502,112.142 163.941,111.027 164.228 C 109.912 164.514,107.740 165.144,106.200 165.627 C 101.580 167.075,99.672 167.137,100.900 165.798 C 101.175 165.498,101.940 164.489,102.600 163.555 C 103.260 162.622,104.611 160.765,105.601 159.429 C 106.592 158.093,108.078 156.010,108.904 154.800 C 109.729 153.590,111.391 151.250,112.597 149.600 C 115.801 145.214,117.200 143.189,117.200 142.935 C 117.200 142.812,117.875 141.876,118.700 140.856 C 120.411 138.739,121.385 137.381,124.098 133.327 C 126.457 129.804,127.632 129.277,128.188 131.494 M245.762 168.954 C 245.634 169.289,245.815 169.971,246.164 170.470 C 246.514 170.970,246.800 171.169,246.800 170.913 C 246.800 170.657,246.620 170.336,246.400 170.200 C 245.702 169.768,245.968 169.200,246.869 169.200 C 247.346 169.200,248.111 169.508,248.569 169.885 L 249.400 170.570 248.600 169.727 C 247.498 168.565,246.062 168.174,245.762 168.954 M246.813 171.737 C 246.806 171.922,247.160 172.531,247.600 173.091 C 248.040 173.650,248.400 173.924,248.400 173.698 C 248.400 173.200,246.832 171.261,246.813 171.737 M262.537 174.600 C 262.539 176.360,262.609 177.030,262.693 176.089 C 262.778 175.149,262.777 173.709,262.691 172.889 C 262.605 172.070,262.536 172.840,262.537 174.600 M248.413 174.537 C 248.406 174.722,248.760 175.331,249.200 175.891 C 249.640 176.450,250.000 176.724,250.000 176.498 C 250.000 176.000,248.432 174.061,248.413 174.537 M279.600 177.776 C 279.600 178.533,279.738 179.238,279.907 179.343 C 280.076 179.447,280.148 178.828,280.065 177.966 C 279.881 176.032,279.600 175.918,279.600 177.776 M250.000 177.462 C 250.000 177.704,250.270 178.126,250.600 178.400 C 250.930 178.674,251.200 179.044,251.200 179.223 C 251.200 179.715,251.909 181.217,252.982 183.000 C 253.512 183.880,254.209 185.163,254.532 185.851 C 254.854 186.539,255.305 187.218,255.534 187.359 C 255.911 187.592,255.087 185.900,252.315 180.753 C 251.031 178.370,250.000 176.904,250.000 177.462 M256.001 188.476 C 256.001 188.848,256.198 189.275,256.441 189.425 C 256.683 189.575,257.146 190.261,257.468 190.949 C 258.470 193.084,259.226 194.575,259.624 195.200 C 259.834 195.530,260.222 196.250,260.487 196.800 C 261.011 197.890,262.400 199.842,262.400 199.489 C 262.400 199.290,259.658 194.238,258.769 192.800 C 258.565 192.470,258.235 191.826,258.035 191.369 C 257.265 189.606,256.003 187.811,256.001 188.476 M278.114 201.100 C 277.480 201.925,276.653 203.050,276.277 203.600 C 269.413 213.622,269.849 213.401,267.228 208.200 C 264.829 203.439,262.400 199.456,262.400 200.282 C 262.400 200.536,262.646 200.989,262.947 201.290 C 263.248 201.591,263.629 202.279,263.795 202.819 C 263.960 203.358,264.331 204.070,264.619 204.401 C 264.908 204.731,265.341 205.451,265.582 206.001 C 265.822 206.550,266.458 207.720,266.994 208.600 C 267.530 209.480,268.173 210.695,268.423 211.300 C 269.315 213.456,270.401 212.741,273.742 207.800 C 275.652 204.974,276.467 203.834,278.534 201.100 C 279.157 200.275,279.577 199.600,279.467 199.600 C 279.357 199.600,278.748 200.275,278.114 201.100 " stroke="none" fill="#04afc6" fill-rule="evenodd"></path><path id="path4" d="M19.668 262.137 C 19.600 324.967,19.604 325.276,20.400 325.484 C 21.027 325.648,21.200 326.030,21.200 327.247 C 21.200 328.533,21.337 328.800,22.000 328.800 C 22.533 328.800,22.800 329.067,22.800 329.600 C 22.800 330.133,23.067 330.400,23.600 330.400 C 24.133 330.400,24.400 330.667,24.400 331.200 C 24.400 331.717,24.667 332.000,25.153 332.000 C 25.570 332.000,26.000 332.357,26.116 332.800 C 26.315 333.560,26.662 333.600,33.000 333.600 C 39.338 333.600,39.685 333.560,39.884 332.800 C 40.023 332.270,40.430 332.000,41.089 332.000 C 41.864 332.000,42.031 331.845,41.842 331.300 C 41.639 330.716,41.698 330.729,42.199 331.376 C 42.787 332.136,42.800 332.134,42.800 331.276 C 42.800 330.498,43.192 330.215,44.086 330.348 C 44.243 330.371,44.291 330.168,44.193 329.895 C 44.095 329.623,44.387 328.950,44.842 328.400 C 45.297 327.850,45.550 327.670,45.405 328.000 C 45.187 328.496,45.233 328.492,45.670 327.975 C 45.962 327.632,46.535 327.224,46.945 327.070 C 47.554 326.842,47.600 326.682,47.196 326.195 C 46.800 325.718,46.811 325.591,47.251 325.554 C 47.553 325.528,47.980 325.466,48.200 325.415 C 48.420 325.364,48.769 325.294,48.976 325.261 C 49.184 325.227,49.004 324.930,48.576 324.599 C 48.006 324.157,47.975 324.058,48.458 324.226 C 48.857 324.364,49.340 324.135,49.683 323.646 C 49.994 323.201,50.772 322.639,51.411 322.396 C 52.332 322.046,52.451 321.879,51.986 321.591 C 51.529 321.309,51.690 321.128,52.713 320.771 C 53.842 320.377,53.954 320.224,53.513 319.680 C 53.154 319.236,53.145 319.133,53.483 319.336 C 53.786 319.518,54.200 319.174,54.593 318.413 C 54.938 317.746,55.317 317.200,55.434 317.200 C 55.551 317.200,55.536 317.380,55.400 317.600 C 55.264 317.820,55.322 318.000,55.529 318.000 C 55.987 318.000,58.040 315.373,57.783 315.116 C 57.682 315.016,57.870 314.903,58.200 314.867 C 58.530 314.830,59.036 314.770,59.325 314.733 C 59.613 314.697,59.838 314.295,59.825 313.840 C 59.811 313.386,60.025 313.011,60.300 313.007 C 60.575 313.003,60.800 312.865,60.800 312.700 C 60.800 312.234,62.155 310.909,62.582 310.957 C 63.102 311.016,63.127 309.871,62.613 309.506 C 62.386 309.344,62.616 309.209,63.124 309.206 C 63.639 309.203,63.938 309.377,63.800 309.600 C 63.664 309.820,63.722 310.000,63.930 310.000 C 64.291 310.000,64.933 308.524,64.843 307.900 C 64.819 307.735,65.010 307.645,65.267 307.700 C 65.524 307.755,65.912 307.207,66.130 306.481 C 66.415 305.532,66.705 305.224,67.163 305.382 C 67.671 305.557,67.658 305.492,67.100 305.057 C 66.715 304.757,66.400 304.279,66.400 303.994 C 66.400 303.631,66.630 303.684,67.167 304.170 C 68.480 305.358,69.904 304.326,68.957 302.871 C 68.282 301.833,68.284 301.819,69.005 302.400 C 69.680 302.944,69.725 302.935,69.487 302.300 C 69.122 301.326,69.477 301.423,70.026 302.448 C 70.345 303.044,70.349 303.216,70.040 303.025 C 69.798 302.875,69.600 302.933,69.600 303.153 C 69.600 303.951,70.349 303.991,70.598 303.206 C 70.739 302.763,71.112 302.400,71.427 302.400 C 72.093 302.400,72.144 302.042,71.600 301.200 C 71.267 300.685,71.211 300.697,71.206 301.287 C 71.202 301.716,70.986 301.893,70.631 301.757 C 69.823 301.447,69.488 300.345,70.046 299.833 C 70.346 299.557,70.433 299.552,70.285 299.819 C 70.157 300.050,70.207 300.487,70.394 300.791 C 70.615 301.148,70.697 300.858,70.625 299.972 C 70.465 297.995,70.441 297.927,70.000 298.200 C 69.780 298.336,69.600 298.257,69.600 298.024 C 69.600 297.791,69.240 297.600,68.800 297.600 C 68.267 297.600,68.000 297.333,68.000 296.800 C 68.000 296.267,67.733 296.000,67.200 296.000 C 66.756 296.000,66.400 295.733,66.400 295.400 C 66.400 295.067,66.044 294.800,65.600 294.800 C 65.067 294.800,64.800 294.533,64.800 294.000 C 64.800 293.467,64.533 293.200,64.000 293.200 C 63.267 293.200,63.200 292.933,63.200 290.000 L 63.200 286.800 61.800 286.800 C 60.667 286.800,60.400 286.952,60.400 287.600 C 60.400 288.187,60.133 288.400,59.400 288.400 C 58.444 288.400,58.400 288.293,58.400 286.000 C 58.400 284.133,58.267 283.600,57.800 283.600 C 57.467 283.600,57.200 283.244,57.200 282.800 C 57.200 282.267,56.933 282.000,56.400 282.000 C 55.697 282.000,55.600 281.733,55.600 279.800 L 55.600 277.600 54.000 277.600 L 52.400 277.600 52.400 275.200 L 52.400 272.800 50.800 272.800 L 49.200 272.800 49.200 271.200 C 49.200 269.867,49.067 269.600,48.400 269.600 C 47.689 269.600,47.600 269.333,47.600 267.200 L 47.600 264.800 46.228 264.800 C 45.123 264.800,44.822 264.975,44.682 265.700 L 44.509 266.600 44.454 265.700 C 44.417 265.085,44.147 264.800,43.600 264.800 C 42.897 264.800,42.800 264.533,42.800 262.600 L 42.800 260.400 41.400 260.400 C 40.033 260.400,40.000 260.362,40.000 258.800 C 40.000 257.467,39.867 257.200,39.200 257.200 C 38.533 257.200,38.400 256.933,38.400 255.600 L 38.400 254.000 36.800 254.000 L 35.200 254.000 35.200 252.400 C 35.200 251.067,35.067 250.800,34.400 250.800 C 33.733 250.800,33.600 250.533,33.600 249.200 C 33.600 247.867,33.467 247.600,32.800 247.600 C 32.152 247.600,32.000 247.333,32.000 246.200 C 32.000 244.833,31.962 244.800,30.400 244.800 C 29.067 244.800,28.800 244.667,28.800 244.000 C 28.800 243.467,28.533 243.200,28.000 243.200 C 27.333 243.200,27.200 242.933,27.200 241.600 C 27.200 240.267,27.067 240.000,26.400 240.000 C 25.867 240.000,25.600 239.733,25.600 239.200 C 25.600 238.756,25.333 238.400,25.000 238.400 C 24.667 238.400,24.400 238.044,24.400 237.600 C 24.400 236.588,22.936 236.503,22.676 237.500 C 22.575 237.885,22.493 237.210,22.493 236.000 C 22.493 234.790,22.575 234.115,22.676 234.500 C 23.069 236.005,24.400 235.311,24.400 233.600 C 24.400 231.923,22.838 231.059,22.772 232.700 C 22.748 233.299,22.694 233.284,22.400 232.600 C 22.189 232.109,22.045 232.023,22.028 232.376 C 22.008 232.797,21.841 232.743,21.413 232.176 C 20.891 231.487,20.824 232.588,20.813 241.967 C 20.806 247.778,20.689 252.422,20.553 252.287 C 20.417 252.151,20.178 240.106,20.021 225.520 C 19.783 203.355,19.725 209.368,19.668 262.137 M85.843 287.640 C 85.426 288.045,84.950 288.293,84.784 288.190 C 84.619 288.088,84.375 288.288,84.242 288.635 C 83.875 289.592,83.939 289.643,84.700 289.004 C 85.085 288.680,85.760 288.156,86.199 287.840 C 86.639 287.524,86.909 287.184,86.799 287.084 C 86.690 286.985,86.259 287.235,85.843 287.640 M75.098 297.300 C 74.995 297.575,75.053 298.160,75.227 298.600 C 75.485 299.251,75.549 299.159,75.572 298.100 C 75.601 296.748,75.420 296.442,75.098 297.300 M73.600 298.820 C 73.600 298.978,73.195 299.230,72.700 299.380 C 72.094 299.565,71.976 299.725,72.339 299.873 C 72.897 300.100,74.800 299.269,74.800 298.799 C 74.800 298.653,74.530 298.533,74.200 298.533 C 73.870 298.533,73.600 298.662,73.600 298.820 " stroke="none" fill="#04d4a6" fill-rule="evenodd"></path></g></svg>